<mxfile host="app.diagrams.net" modified="2024-06-21T09:04:23.279Z" agent="Mozilla/5.0 (Windows NT 10.0; Win64; x64) AppleWebKit/537.36 (KHTML, like Gecko) Chrome/126.0.0.0 Safari/537.36" etag="ldT_YKXPebaPKUh9bZGx" version="24.5.5" type="device">
  <diagram name="Pagina-1" id="2rsMsBV10NN7m0v9cmO4">
    <mxGraphModel dx="1050" dy="522" grid="1" gridSize="10" guides="1" tooltips="1" connect="1" arrows="1" fold="1" page="1" pageScale="1" pageWidth="827" pageHeight="1169" math="0" shadow="0">
      <root>
        <mxCell id="0" />
        <mxCell id="1" parent="0" />
        <mxCell id="YQT9bF_HIkWLTDOw1lmp-8" style="edgeStyle=orthogonalEdgeStyle;rounded=0;orthogonalLoop=1;jettySize=auto;html=1;exitX=0.5;exitY=1;exitDx=0;exitDy=0;entryX=0.5;entryY=0;entryDx=0;entryDy=0;" parent="1" source="YQT9bF_HIkWLTDOw1lmp-4" target="YQT9bF_HIkWLTDOw1lmp-7" edge="1">
          <mxGeometry relative="1" as="geometry" />
        </mxCell>
        <mxCell id="YQT9bF_HIkWLTDOw1lmp-4" value="Start" style="ellipse;whiteSpace=wrap;html=1;" parent="1" vertex="1">
          <mxGeometry x="340" y="10" width="160" height="90" as="geometry" />
        </mxCell>
        <mxCell id="jOECheKFQzNGMom73Tzw-3" style="edgeStyle=orthogonalEdgeStyle;rounded=0;orthogonalLoop=1;jettySize=auto;html=1;exitX=0.5;exitY=1;exitDx=0;exitDy=0;entryX=0.5;entryY=0;entryDx=0;entryDy=0;" parent="1" source="YQT9bF_HIkWLTDOw1lmp-7" target="jOECheKFQzNGMom73Tzw-1" edge="1">
          <mxGeometry relative="1" as="geometry" />
        </mxCell>
        <mxCell id="YQT9bF_HIkWLTDOw1lmp-7" value="Welkom zin&lt;div&gt;&lt;br&gt;&lt;/div&gt;" style="rounded=0;whiteSpace=wrap;html=1;" parent="1" vertex="1">
          <mxGeometry x="370" y="150" width="100" height="60" as="geometry" />
        </mxCell>
        <mxCell id="BlB1RZ00LhgDGbWQuA9Q-24" style="edgeStyle=orthogonalEdgeStyle;rounded=0;orthogonalLoop=1;jettySize=auto;html=1;entryX=0.643;entryY=0.876;entryDx=0;entryDy=0;entryPerimeter=0;" parent="1" edge="1">
          <mxGeometry relative="1" as="geometry">
            <mxPoint x="430" y="341.94" as="targetPoint" />
            <mxPoint x="770.0234782608698" y="378.06" as="sourcePoint" />
            <Array as="points">
              <mxPoint x="769.98" y="538.06" />
              <mxPoint x="449.98" y="538.06" />
              <mxPoint x="449.98" y="342.06" />
            </Array>
          </mxGeometry>
        </mxCell>
        <mxCell id="YQT9bF_HIkWLTDOw1lmp-22" value="sorry dat snap ik&lt;br&gt;&amp;nbsp;niet" style="shape=parallelogram;perimeter=parallelogramPerimeter;whiteSpace=wrap;html=1;fixedSize=1;" parent="1" vertex="1">
          <mxGeometry x="690" y="320" width="120" height="60" as="geometry" />
        </mxCell>
        <mxCell id="YQT9bF_HIkWLTDOw1lmp-30" value="Sorry, zulke grote bakken hebben we niet." style="shape=parallelogram;perimeter=parallelogramPerimeter;whiteSpace=wrap;html=1;fixedSize=1;" parent="1" vertex="1">
          <mxGeometry x="546.25" y="400" width="127.5" height="60" as="geometry" />
        </mxCell>
        <mxCell id="WGNCVHMDd5Py4phrD6J4-7" value="&quot;Dan krijgt u v an mij en bakje&lt;div&gt;&amp;nbsp;met {aantal} bolletjes&quot;&lt;/div&gt;" style="shape=parallelogram;perimeter=parallelogramPerimeter;whiteSpace=wrap;html=1;fixedSize=1;" parent="1" vertex="1">
          <mxGeometry x="343.75" y="950" width="180" height="80" as="geometry" />
        </mxCell>
        <mxCell id="jOECheKFQzNGMom73Tzw-21" style="edgeStyle=orthogonalEdgeStyle;rounded=0;orthogonalLoop=1;jettySize=auto;html=1;exitX=1;exitY=0.5;exitDx=0;exitDy=0;entryX=0.5;entryY=0;entryDx=0;entryDy=0;" parent="1" source="jOECheKFQzNGMom73Tzw-1" target="YQT9bF_HIkWLTDOw1lmp-30" edge="1">
          <mxGeometry relative="1" as="geometry" />
        </mxCell>
        <mxCell id="jOECheKFQzNGMom73Tzw-24" style="edgeStyle=orthogonalEdgeStyle;rounded=0;orthogonalLoop=1;jettySize=auto;html=1;exitX=1;exitY=0;exitDx=0;exitDy=0;entryX=0.5;entryY=0;entryDx=0;entryDy=0;" parent="1" source="jOECheKFQzNGMom73Tzw-1" target="YQT9bF_HIkWLTDOw1lmp-22" edge="1">
          <mxGeometry relative="1" as="geometry" />
        </mxCell>
        <mxCell id="Pc3phLc8lNTFxIL4O3lG-28" style="edgeStyle=orthogonalEdgeStyle;rounded=0;orthogonalLoop=1;jettySize=auto;html=1;exitX=1;exitY=1;exitDx=0;exitDy=0;entryX=0;entryY=0.75;entryDx=0;entryDy=0;" parent="1" source="jOECheKFQzNGMom73Tzw-1" target="YQT9bF_HIkWLTDOw1lmp-30" edge="1">
          <mxGeometry relative="1" as="geometry">
            <Array as="points">
              <mxPoint x="510" y="327" />
              <mxPoint x="510" y="444" />
            </Array>
          </mxGeometry>
        </mxCell>
        <mxCell id="Pc3phLc8lNTFxIL4O3lG-29" style="edgeStyle=orthogonalEdgeStyle;rounded=0;orthogonalLoop=1;jettySize=auto;html=1;exitX=0;exitY=0.5;exitDx=0;exitDy=0;entryX=0.617;entryY=-0.009;entryDx=0;entryDy=0;entryPerimeter=0;" parent="1" source="jOECheKFQzNGMom73Tzw-1" edge="1">
          <mxGeometry relative="1" as="geometry">
            <mxPoint x="138.72000000000003" y="549.19" as="targetPoint" />
          </mxGeometry>
        </mxCell>
        <mxCell id="Pc3phLc8lNTFxIL4O3lG-31" style="edgeStyle=orthogonalEdgeStyle;rounded=0;orthogonalLoop=1;jettySize=auto;html=1;exitX=0;exitY=0.5;exitDx=0;exitDy=0;entryX=0.75;entryY=0;entryDx=0;entryDy=0;" parent="1" source="jOECheKFQzNGMom73Tzw-1" target="0WGYchsGzgu78hjfi1tE-2" edge="1">
          <mxGeometry relative="1" as="geometry">
            <mxPoint x="345" y="530" as="targetPoint" />
          </mxGeometry>
        </mxCell>
        <mxCell id="jOECheKFQzNGMom73Tzw-1" value="&lt;div&gt;&lt;span style=&quot;background-color: initial;&quot;&gt;Hoeveel bolletjes wilt u?&lt;/span&gt;&lt;br&gt;&lt;/div&gt;" style="rhombus;whiteSpace=wrap;html=1;" parent="1" vertex="1">
          <mxGeometry x="350" y="230" width="140" height="130" as="geometry" />
        </mxCell>
        <mxCell id="jOECheKFQzNGMom73Tzw-19" value="&lt;span style=&quot;text-wrap: wrap;&quot;&gt;Aantal 4 t/m 8&lt;/span&gt;" style="text;html=1;align=center;verticalAlign=middle;resizable=0;points=[];autosize=1;strokeColor=none;fillColor=none;" parent="1" vertex="1">
          <mxGeometry x="320" y="450" width="100" height="30" as="geometry" />
        </mxCell>
        <mxCell id="jOECheKFQzNGMom73Tzw-20" value="&lt;span style=&quot;text-wrap: wrap;&quot;&gt;Aantal 1 t/m 3&lt;/span&gt;" style="text;html=1;align=center;verticalAlign=middle;resizable=0;points=[];autosize=1;strokeColor=none;fillColor=none;" parent="1" vertex="1">
          <mxGeometry x="40" y="390" width="100" height="30" as="geometry" />
        </mxCell>
        <mxCell id="jOECheKFQzNGMom73Tzw-22" value="&lt;span style=&quot;color: rgb(0, 0, 0); font-family: Helvetica; font-size: 12px; font-style: normal; font-variant-ligatures: normal; font-variant-caps: normal; font-weight: 400; letter-spacing: normal; orphans: 2; text-align: center; text-indent: 0px; text-transform: none; widows: 2; word-spacing: 0px; -webkit-text-stroke-width: 0px; white-space: normal; background-color: rgb(251, 251, 251); text-decoration-thickness: initial; text-decoration-style: initial; text-decoration-color: initial; display: inline !important; float: none;&quot;&gt;Aantal &amp;gt; 8&lt;/span&gt;" style="text;whiteSpace=wrap;html=1;" parent="1" vertex="1">
          <mxGeometry x="530" y="340" width="90" height="40" as="geometry" />
        </mxCell>
        <mxCell id="jOECheKFQzNGMom73Tzw-25" value="Ongeldige invoer" style="text;html=1;align=center;verticalAlign=middle;resizable=0;points=[];autosize=1;strokeColor=none;fillColor=none;" parent="1" vertex="1">
          <mxGeometry x="610" y="240" width="110" height="30" as="geometry" />
        </mxCell>
        <mxCell id="Pc3phLc8lNTFxIL4O3lG-58" style="edgeStyle=orthogonalEdgeStyle;rounded=0;orthogonalLoop=1;jettySize=auto;html=1;entryX=0;entryY=0.25;entryDx=0;entryDy=0;" parent="1" source="jOECheKFQzNGMom73Tzw-26" target="Pc3phLc8lNTFxIL4O3lG-38" edge="1">
          <mxGeometry relative="1" as="geometry">
            <Array as="points">
              <mxPoint x="300" y="920" />
              <mxPoint x="300" y="1138" />
            </Array>
          </mxGeometry>
        </mxCell>
        <mxCell id="jOECheKFQzNGMom73Tzw-26" value="Wilt u deze {aantal} bolletje(s)&lt;div&gt;&amp;nbsp;in een hoorntje&lt;span style=&quot;background-color: initial;&quot;&gt;&amp;nbsp;of een bakje?&lt;/span&gt;&lt;/div&gt;" style="rhombus;whiteSpace=wrap;html=1;" parent="1" vertex="1">
          <mxGeometry x="55" y="850" width="187.5" height="160" as="geometry" />
        </mxCell>
        <mxCell id="Pc3phLc8lNTFxIL4O3lG-7" value="&lt;span style=&quot;text-wrap: wrap;&quot;&gt;Hoorntje&lt;/span&gt;" style="text;html=1;align=center;verticalAlign=middle;resizable=0;points=[];autosize=1;strokeColor=none;fillColor=none;" parent="1" vertex="1">
          <mxGeometry x="20" y="1030" width="70" height="30" as="geometry" />
        </mxCell>
        <mxCell id="Pc3phLc8lNTFxIL4O3lG-33" style="edgeStyle=orthogonalEdgeStyle;rounded=0;orthogonalLoop=1;jettySize=auto;html=1;entryX=0.5;entryY=0;entryDx=0;entryDy=0;exitX=0.632;exitY=1.031;exitDx=0;exitDy=0;exitPerimeter=0;" parent="1" target="jOECheKFQzNGMom73Tzw-26" edge="1">
          <mxGeometry relative="1" as="geometry">
            <mxPoint x="141.1199999999999" y="642.79" as="sourcePoint" />
          </mxGeometry>
        </mxCell>
        <mxCell id="Pc3phLc8lNTFxIL4O3lG-71" style="edgeStyle=orthogonalEdgeStyle;rounded=0;orthogonalLoop=1;jettySize=auto;html=1;exitX=0.5;exitY=1;exitDx=0;exitDy=0;entryX=0.5;entryY=0;entryDx=0;entryDy=0;" parent="1" target="Pc3phLc8lNTFxIL4O3lG-70" edge="1">
          <mxGeometry relative="1" as="geometry">
            <mxPoint x="345" y="690" as="sourcePoint" />
          </mxGeometry>
        </mxCell>
        <mxCell id="Pc3phLc8lNTFxIL4O3lG-34" value="A: Aardbei&lt;div&gt;C: Chocolade&lt;/div&gt;&lt;div&gt;M: Munt&lt;br&gt;&lt;/div&gt;&lt;div&gt;V: Vanille&lt;/div&gt;&lt;div&gt;&lt;br&gt;&lt;/div&gt;" style="text;html=1;align=center;verticalAlign=middle;resizable=0;points=[];autosize=1;strokeColor=none;fillColor=none;" parent="1" vertex="1">
          <mxGeometry x="40" y="720" width="100" height="90" as="geometry" />
        </mxCell>
        <mxCell id="Pc3phLc8lNTFxIL4O3lG-37" value="&lt;span style=&quot;text-wrap: wrap;&quot;&gt;Bakje&lt;/span&gt;" style="text;html=1;align=center;verticalAlign=middle;resizable=0;points=[];autosize=1;strokeColor=none;fillColor=none;" parent="1" vertex="1">
          <mxGeometry x="200" y="1040" width="50" height="30" as="geometry" />
        </mxCell>
        <mxCell id="Pc3phLc8lNTFxIL4O3lG-38" value="Sorry, dat snap ik niet..." style="shape=parallelogram;perimeter=parallelogramPerimeter;whiteSpace=wrap;html=1;fixedSize=1;" parent="1" vertex="1">
          <mxGeometry x="383.75" y="1117" width="150" height="70" as="geometry" />
        </mxCell>
        <mxCell id="Pc3phLc8lNTFxIL4O3lG-40" style="edgeStyle=orthogonalEdgeStyle;rounded=0;orthogonalLoop=1;jettySize=auto;html=1;exitX=1;exitY=0.25;exitDx=0;exitDy=0;entryX=0;entryY=0.5;entryDx=0;entryDy=0;" parent="1" source="Pc3phLc8lNTFxIL4O3lG-41" target="Pc3phLc8lNTFxIL4O3lG-43" edge="1">
          <mxGeometry relative="1" as="geometry">
            <Array as="points">
              <mxPoint x="353.75" y="1298" />
              <mxPoint x="353.75" y="1297" />
            </Array>
          </mxGeometry>
        </mxCell>
        <mxCell id="Pc3phLc8lNTFxIL4O3lG-41" value="Hier is uw {hoorntje/bakje} met {aantal} bolletje(s)." style="shape=parallelogram;perimeter=parallelogramPerimeter;whiteSpace=wrap;html=1;fixedSize=1;" parent="1" vertex="1">
          <mxGeometry x="163.75" y="1277" width="162.5" height="80" as="geometry" />
        </mxCell>
        <mxCell id="Pc3phLc8lNTFxIL4O3lG-42" style="edgeStyle=orthogonalEdgeStyle;rounded=0;orthogonalLoop=1;jettySize=auto;html=1;exitX=0;exitY=1;exitDx=0;exitDy=0;entryX=1;entryY=0.5;entryDx=0;entryDy=0;" parent="1" source="Pc3phLc8lNTFxIL4O3lG-43" target="Pc3phLc8lNTFxIL4O3lG-50" edge="1">
          <mxGeometry relative="1" as="geometry" />
        </mxCell>
        <mxCell id="Pc3phLc8lNTFxIL4O3lG-43" value="Wilt u nog meer bestellen?" style="rhombus;whiteSpace=wrap;html=1;" parent="1" vertex="1">
          <mxGeometry x="397.75" y="1227" width="140" height="140" as="geometry" />
        </mxCell>
        <mxCell id="Pc3phLc8lNTFxIL4O3lG-45" style="edgeStyle=orthogonalEdgeStyle;rounded=0;orthogonalLoop=1;jettySize=auto;html=1;entryX=0.5;entryY=0;entryDx=0;entryDy=0;" parent="1" source="Pc3phLc8lNTFxIL4O3lG-46" edge="1">
          <mxGeometry relative="1" as="geometry">
            <mxPoint x="463.75" y="1537" as="targetPoint" />
          </mxGeometry>
        </mxCell>
        <mxCell id="Pc3phLc8lNTFxIL4O3lG-46" value="Bonnetje" style="shape=parallelogram;perimeter=parallelogramPerimeter;whiteSpace=wrap;html=1;fixedSize=1;" parent="1" vertex="1">
          <mxGeometry x="383.75" y="1407" width="150" height="80" as="geometry" />
        </mxCell>
        <mxCell id="Pc3phLc8lNTFxIL4O3lG-47" style="edgeStyle=orthogonalEdgeStyle;rounded=0;orthogonalLoop=1;jettySize=auto;html=1;exitX=0.5;exitY=1;exitDx=0;exitDy=0;entryX=0.565;entryY=-0.04;entryDx=0;entryDy=0;entryPerimeter=0;" parent="1" source="Pc3phLc8lNTFxIL4O3lG-43" target="Pc3phLc8lNTFxIL4O3lG-46" edge="1">
          <mxGeometry relative="1" as="geometry" />
        </mxCell>
        <mxCell id="Pc3phLc8lNTFxIL4O3lG-48" value="Nee" style="text;html=1;align=center;verticalAlign=middle;resizable=0;points=[];autosize=1;strokeColor=none;fillColor=none;" parent="1" vertex="1">
          <mxGeometry x="473.75" y="1367" width="50" height="30" as="geometry" />
        </mxCell>
        <mxCell id="Pc3phLc8lNTFxIL4O3lG-49" style="edgeStyle=orthogonalEdgeStyle;rounded=0;orthogonalLoop=1;jettySize=auto;html=1;" parent="1" source="Pc3phLc8lNTFxIL4O3lG-50" target="Pc3phLc8lNTFxIL4O3lG-43" edge="1">
          <mxGeometry relative="1" as="geometry">
            <Array as="points">
              <mxPoint x="266.75" y="1517" />
              <mxPoint x="573.75" y="1517" />
              <mxPoint x="573.75" y="1317" />
            </Array>
          </mxGeometry>
        </mxCell>
        <mxCell id="Pc3phLc8lNTFxIL4O3lG-50" value="Sorry, dat&amp;nbsp;&lt;div&gt;snap ik niet&lt;/div&gt;" style="shape=parallelogram;perimeter=parallelogramPerimeter;whiteSpace=wrap;html=1;fixedSize=1;" parent="1" vertex="1">
          <mxGeometry x="206.25" y="1427" width="120" height="60" as="geometry" />
        </mxCell>
        <mxCell id="Pc3phLc8lNTFxIL4O3lG-51" value="Ongeldige invoer/anders" style="text;html=1;align=center;verticalAlign=middle;resizable=0;points=[];autosize=1;strokeColor=none;fillColor=none;" parent="1" vertex="1">
          <mxGeometry x="163.75" y="1397" width="150" height="30" as="geometry" />
        </mxCell>
        <mxCell id="Pc3phLc8lNTFxIL4O3lG-53" value="Einde&amp;nbsp;" style="ellipse;whiteSpace=wrap;html=1;" parent="1" vertex="1">
          <mxGeometry x="633.75" y="1527" width="120" height="80" as="geometry" />
        </mxCell>
        <mxCell id="Pc3phLc8lNTFxIL4O3lG-54" value="" style="edgeStyle=orthogonalEdgeStyle;rounded=0;orthogonalLoop=1;jettySize=auto;html=1;" parent="1" source="Pc3phLc8lNTFxIL4O3lG-55" target="Pc3phLc8lNTFxIL4O3lG-53" edge="1">
          <mxGeometry relative="1" as="geometry" />
        </mxCell>
        <mxCell id="Pc3phLc8lNTFxIL4O3lG-55" value="Bedankt en tot ziens!" style="shape=parallelogram;perimeter=parallelogramPerimeter;whiteSpace=wrap;html=1;fixedSize=1;" parent="1" vertex="1">
          <mxGeometry x="383.75" y="1537" width="160" height="80" as="geometry" />
        </mxCell>
        <mxCell id="Pc3phLc8lNTFxIL4O3lG-59" value="Ongeldige invoer" style="text;html=1;align=center;verticalAlign=middle;resizable=0;points=[];autosize=1;strokeColor=none;fillColor=none;" parent="1" vertex="1">
          <mxGeometry x="230" y="1139" width="110" height="30" as="geometry" />
        </mxCell>
        <mxCell id="Pc3phLc8lNTFxIL4O3lG-63" style="edgeStyle=orthogonalEdgeStyle;rounded=0;orthogonalLoop=1;jettySize=auto;html=1;exitX=1;exitY=0.5;exitDx=0;exitDy=0;entryX=0;entryY=0.25;entryDx=0;entryDy=0;" parent="1" source="Pc3phLc8lNTFxIL4O3lG-60" target="Pc3phLc8lNTFxIL4O3lG-38" edge="1">
          <mxGeometry relative="1" as="geometry" />
        </mxCell>
        <mxCell id="Pc3phLc8lNTFxIL4O3lG-64" style="edgeStyle=orthogonalEdgeStyle;rounded=0;orthogonalLoop=1;jettySize=auto;html=1;exitX=0.5;exitY=1;exitDx=0;exitDy=0;entryX=0;entryY=0.5;entryDx=0;entryDy=0;" parent="1" source="Pc3phLc8lNTFxIL4O3lG-60" target="Pc3phLc8lNTFxIL4O3lG-41" edge="1">
          <mxGeometry relative="1" as="geometry">
            <mxPoint x="142" y="1320" as="targetPoint" />
            <Array as="points">
              <mxPoint x="143" y="1239" />
              <mxPoint x="140" y="1239" />
              <mxPoint x="140" y="1317" />
            </Array>
          </mxGeometry>
        </mxCell>
        <mxCell id="Pc3phLc8lNTFxIL4O3lG-60" value="Wat voor topping wilt u?" style="rhombus;whiteSpace=wrap;html=1;" parent="1" vertex="1">
          <mxGeometry x="67.5" y="1080" width="150" height="120" as="geometry" />
        </mxCell>
        <mxCell id="Pc3phLc8lNTFxIL4O3lG-61" style="edgeStyle=orthogonalEdgeStyle;rounded=0;orthogonalLoop=1;jettySize=auto;html=1;exitX=0;exitY=1;exitDx=0;exitDy=0;entryX=0.177;entryY=0.325;entryDx=0;entryDy=0;entryPerimeter=0;" parent="1" source="jOECheKFQzNGMom73Tzw-26" target="Pc3phLc8lNTFxIL4O3lG-60" edge="1">
          <mxGeometry relative="1" as="geometry" />
        </mxCell>
        <mxCell id="Pc3phLc8lNTFxIL4O3lG-62" style="edgeStyle=orthogonalEdgeStyle;rounded=0;orthogonalLoop=1;jettySize=auto;html=1;exitX=1;exitY=1;exitDx=0;exitDy=0;entryX=0.85;entryY=0.3;entryDx=0;entryDy=0;entryPerimeter=0;" parent="1" source="jOECheKFQzNGMom73Tzw-26" target="Pc3phLc8lNTFxIL4O3lG-60" edge="1">
          <mxGeometry relative="1" as="geometry" />
        </mxCell>
        <mxCell id="Pc3phLc8lNTFxIL4O3lG-66" value="A: Geen&lt;div&gt;B: Slagroom&lt;/div&gt;&lt;div&gt;C: Sprinkels&lt;/div&gt;&lt;div&gt;D: Caramel Saus&lt;/div&gt;" style="text;html=1;align=center;verticalAlign=middle;resizable=0;points=[];autosize=1;strokeColor=none;fillColor=none;" parent="1" vertex="1">
          <mxGeometry x="30" y="1220" width="110" height="70" as="geometry" />
        </mxCell>
        <mxCell id="Pc3phLc8lNTFxIL4O3lG-68" value="Ja" style="text;html=1;align=center;verticalAlign=middle;resizable=0;points=[];autosize=1;strokeColor=none;fillColor=none;" parent="1" vertex="1">
          <mxGeometry x="523.75" y="1260" width="40" height="30" as="geometry" />
        </mxCell>
        <mxCell id="Pc3phLc8lNTFxIL4O3lG-69" style="edgeStyle=orthogonalEdgeStyle;rounded=0;orthogonalLoop=1;jettySize=auto;html=1;exitX=1;exitY=0;exitDx=0;exitDy=0;entryX=0.929;entryY=0.615;entryDx=0;entryDy=0;entryPerimeter=0;" parent="1" source="Pc3phLc8lNTFxIL4O3lG-43" target="jOECheKFQzNGMom73Tzw-1" edge="1">
          <mxGeometry relative="1" as="geometry">
            <Array as="points">
              <mxPoint x="560" y="1262" />
              <mxPoint x="560" y="794" />
              <mxPoint x="480" y="794" />
            </Array>
          </mxGeometry>
        </mxCell>
        <mxCell id="Pc3phLc8lNTFxIL4O3lG-72" style="edgeStyle=orthogonalEdgeStyle;rounded=0;orthogonalLoop=1;jettySize=auto;html=1;exitX=0.5;exitY=1;exitDx=0;exitDy=0;entryX=0.5;entryY=0;entryDx=0;entryDy=0;" parent="1" source="Pc3phLc8lNTFxIL4O3lG-70" target="WGNCVHMDd5Py4phrD6J4-7" edge="1">
          <mxGeometry relative="1" as="geometry" />
        </mxCell>
        <mxCell id="Pc3phLc8lNTFxIL4O3lG-70" value="Wat voor topping wilt u" style="rhombus;whiteSpace=wrap;html=1;" parent="1" vertex="1">
          <mxGeometry x="270" y="750" width="150" height="140" as="geometry" />
        </mxCell>
        <mxCell id="Pc3phLc8lNTFxIL4O3lG-73" value="A: Geen&lt;div&gt;B: Slagroom&lt;/div&gt;&lt;div&gt;C: Sprinkels&lt;/div&gt;&lt;div&gt;D: Caramel Saus&lt;/div&gt;" style="text;html=1;align=center;verticalAlign=middle;resizable=0;points=[];autosize=1;strokeColor=none;fillColor=none;" parent="1" vertex="1">
          <mxGeometry x="390" y="830" width="110" height="70" as="geometry" />
        </mxCell>
        <mxCell id="Pc3phLc8lNTFxIL4O3lG-74" value="A: Aardbei&lt;div&gt;C: Chocolade&lt;/div&gt;&lt;div&gt;M: Munt&lt;br&gt;&lt;/div&gt;&lt;div&gt;V: Vanille&lt;/div&gt;&lt;div&gt;&lt;br&gt;&lt;/div&gt;" style="text;html=1;align=center;verticalAlign=middle;resizable=0;points=[];autosize=1;strokeColor=none;fillColor=none;" parent="1" vertex="1">
          <mxGeometry x="243.75" y="680" width="100" height="90" as="geometry" />
        </mxCell>
        <mxCell id="Pc3phLc8lNTFxIL4O3lG-76" style="edgeStyle=orthogonalEdgeStyle;rounded=0;orthogonalLoop=1;jettySize=auto;html=1;entryX=0.116;entryY=0.379;entryDx=0;entryDy=0;entryPerimeter=0;" parent="1" source="WGNCVHMDd5Py4phrD6J4-7" target="Pc3phLc8lNTFxIL4O3lG-43" edge="1">
          <mxGeometry relative="1" as="geometry">
            <Array as="points">
              <mxPoint x="330" y="990" />
              <mxPoint x="330" y="1280" />
            </Array>
          </mxGeometry>
        </mxCell>
        <mxCell id="Pc3phLc8lNTFxIL4O3lG-77" style="edgeStyle=orthogonalEdgeStyle;rounded=0;orthogonalLoop=1;jettySize=auto;html=1;entryX=0.917;entryY=0.613;entryDx=0;entryDy=0;entryPerimeter=0;" parent="1" source="Pc3phLc8lNTFxIL4O3lG-38" target="jOECheKFQzNGMom73Tzw-26" edge="1">
          <mxGeometry relative="1" as="geometry">
            <Array as="points">
              <mxPoint x="459" y="1040" />
              <mxPoint x="227" y="1040" />
            </Array>
          </mxGeometry>
        </mxCell>
        <mxCell id="0WGYchsGzgu78hjfi1tE-2" value="Herhaalt de vraag (Nummer) Welke smaak wilt u voor bolletje nummer (nummer) ?&amp;nbsp;" style="rounded=0;whiteSpace=wrap;html=1;" vertex="1" parent="1">
          <mxGeometry x="80" y="550" width="310" height="90" as="geometry" />
        </mxCell>
        <mxCell id="0WGYchsGzgu78hjfi1tE-3" style="edgeStyle=orthogonalEdgeStyle;rounded=0;orthogonalLoop=1;jettySize=auto;html=1;entryX=1.038;entryY=0.173;entryDx=0;entryDy=0;entryPerimeter=0;" edge="1" parent="1" source="0WGYchsGzgu78hjfi1tE-2" target="Pc3phLc8lNTFxIL4O3lG-74">
          <mxGeometry relative="1" as="geometry" />
        </mxCell>
      </root>
    </mxGraphModel>
  </diagram>
</mxfile>
